# xmcd
#
# Track frame offsets:
#   150
#   11529
#   28534
#   42863
#   57532
#   73777
#   86106
#   102062
#   114082
#   127616
#   142297
#   159371
#   173334
#   184170
#   201094
#   215364
#   234097
#   253906
#   266423
#   280747
#   294818
#   306118
#   319181
#
# Disc length: 4475 seconds
#
# Revision: 0
# Processed by: cddbd v1.5.2PL0 Copyright (c) Steve Scherf et al.
# Submitted via: uFREEDB ActiveX Control 1.5
#
DISCID=38117917
DTITLE=Divino e Donizete - 30 anos 2em1
DYEAR=1900
DGENRE=Country
TTITLE0=30 anos de viola
TTITLE1=o rei da cana
TTITLE2=coracao redomao
TTITLE3=a gaivota
TTITLE4=boiadeiro errante
TTITLE5=pode contar comigo
TTITLE6=estrada da paixao
TTITLE7=baile caipira
TTITLE8=a moto e o cavalo
TTITLE9=casando fugido
TTITLE10=chico mulato
TTITLE11=amor amigo
TTITLE12=lobo namorador
TTITLE13=a sereia e o negro d agua
TTITLE14=velho amor
TTITLE15=colar de paixoes
TTITLE16=carro de boi
TTITLE17=a garca
TTITLE18=chamada a cobrar
TTITLE19=antes de romper a aurora
TTITLE20=comitiva caipira
TTITLE21=comitiva pantaneira
TTITLE22=tributo a goias
EXTD=
EXTT0=
EXTT1=
EXTT2=
EXTT3=
EXTT4=
EXTT5=
EXTT6=
EXTT7=
EXTT8=
EXTT9=
EXTT10=
EXTT11=
EXTT12=
EXTT13=
EXTT14=
EXTT15=
EXTT16=
EXTT17=
EXTT18=
EXTT19=
EXTT20=
EXTT21=
EXTT22=
PLAYORDER=
